<?xml version="1.0" standalone="no"?><svg xmlns="http://www.w3.org/2000/svg" viewBox="0 0 1440 320"><path fill="#698474" fill-opacity="1" d="M0,96L24,96C48,96,96,96,144,117.3C192,139,240,181,288,208C336,235,384,245,432,218.7C480,192,528,128,576,122.7C624,117,672,171,720,186.7C768,203,816,181,864,181.3C912,181,960,203,1008,192C1056,181,1104,139,1152,128C1200,117,1248,139,1296,133.3C1344,128,1392,96,1416,80L1440,64L1440,320L1416,320C1392,320,1344,320,1296,320C1248,320,1200,320,1152,320C1104,320,1056,320,1008,320C960,320,912,320,864,320C816,320,768,320,720,320C672,320,624,320,576,320C528,320,480,320,432,320C384,320,336,320,288,320C240,320,192,320,144,320C96,320,48,320,24,320L0,320Z"></path></svg>