<?xml version="1.0" standalone="no"?><svg xmlns="http://www.w3.org/2000/svg" viewBox="0 0 1440 320"><path fill="#698474" fill-opacity="1" d="M0,160L40,181.3C80,203,160,245,240,272C320,299,400,309,480,293.3C560,277,640,235,720,202.7C800,171,880,149,960,165.3C1040,181,1120,235,1200,256C1280,277,1360,267,1400,261.3L1440,256L1440,320L1400,320C1360,320,1280,320,1200,320C1120,320,1040,320,960,320C880,320,800,320,720,320C640,320,560,320,480,320C400,320,320,320,240,320C160,320,80,320,40,320L0,320Z"></path></svg>