<?xml version="1.0" standalone="no"?><svg xmlns="http://www.w3.org/2000/svg" viewBox="0 0 1440 320"><path fill="#698474" fill-opacity="1" d="M0,192L30,208C60,224,120,256,180,256C240,256,300,224,360,218.7C420,213,480,235,540,245.3C600,256,660,256,720,250.7C780,245,840,235,900,213.3C960,192,1020,160,1080,154.7C1140,149,1200,171,1260,176C1320,181,1380,171,1410,165.3L1440,160L1440,320L1410,320C1380,320,1320,320,1260,320C1200,320,1140,320,1080,320C1020,320,960,320,900,320C840,320,780,320,720,320C660,320,600,320,540,320C480,320,420,320,360,320C300,320,240,320,180,320C120,320,60,320,30,320L0,320Z"></path></svg>